<?xml version="1.0" encoding="UTF-8" standalone="no"?>
<!DOCTYPE svg PUBLIC "-//W3C//DTD SVG 1.1//EN" "http://www.w3.org/Graphics/SVG/1.1/DTD/svg11.dtd">
<svg width="100%" height="100%" viewBox="0 0 1042 1042" version="1.1" xmlns="http://www.w3.org/2000/svg" xmlns:xlink="http://www.w3.org/1999/xlink" xml:space="preserve" xmlns:serif="http://www.serif.com/" style="fill-rule:evenodd;clip-rule:evenodd;stroke-linejoin:round;stroke-miterlimit:2;">
    <g id="Layer1">
        <g transform="matrix(0.69515,1.20404,-0.863594,0.498596,885.301,-712.151)">
            <rect x="518.043" y="849.483" width="442.5" height="170.979" style="fill:rgb(67,178,230);"/>
        </g>
        <g transform="matrix(0,1.26991,-1.26991,0,1279.76,-293.836)">
            <path d="M639.83,203.905C857.775,203.905 1034.72,380.848 1034.72,598.793C1034.72,816.737 857.775,993.68 639.83,993.68C421.886,993.68 244.943,816.737 244.943,598.793C244.943,380.848 421.886,203.905 639.83,203.905ZM639.83,338.167C783.674,338.167 900.456,454.949 900.456,598.793C900.456,742.636 783.674,859.418 639.83,859.418C495.987,859.418 379.205,742.636 379.205,598.793C379.205,454.949 495.987,338.167 639.83,338.167Z" style="fill:white;"/>
        </g>
        <g transform="matrix(1.11022e-16,1,-1,1.11022e-16,1038.03,-0.655388)">
            <clipPath id="_clip1">
                <path d="M519.345,17.219C796.114,17.219 1020.82,241.92 1020.82,518.69C1020.82,795.459 796.114,1020.16 519.345,1020.16C242.576,1020.16 17.874,795.459 17.874,518.69C17.874,241.92 242.576,17.219 519.345,17.219ZM519.345,187.719C702.013,187.719 850.316,336.022 850.316,518.69C850.316,701.357 702.013,849.66 519.345,849.66C336.677,849.66 188.374,701.357 188.374,518.69C188.374,336.022 336.677,187.719 519.345,187.719Z"/>
            </clipPath>
            <g clip-path="url(#_clip1)">
                <path d="M519.345,17.219L519.345,187.719L532.803,221.415L738.819,342.015L817.869,419.124L1000.49,330.115L932.995,158.624L710.716,17.219L534.617,7.997L519.345,17.219Z" style="fill:rgb(67,178,230);"/>
            </g>
        </g>
        <g transform="matrix(0.645436,1.11793,-0.863594,0.498596,957.547,-587.016)">
            <clipPath id="_clip2">
                <path d="M572.069,432.09C786.474,432.09 960.543,657.424 960.543,934.972C960.543,1212.52 786.474,1437.86 572.069,1437.86C357.664,1437.86 183.595,1212.52 183.595,934.972C183.595,657.424 357.664,432.09 572.069,432.09ZM572.069,603.07C713.576,603.07 828.462,751.79 828.462,934.972C828.462,1118.15 713.576,1266.88 572.069,1266.88C430.562,1266.88 315.676,1118.15 315.676,934.972C315.676,751.79 430.562,603.07 572.069,603.07Z"/>
            </clipPath>
            <g clip-path="url(#_clip2)">
                <rect x="518.043" y="849.483" width="442.5" height="170.979" style="fill:rgb(67,178,230);"/>
            </g>
        </g>
        <path d="M610.633,836.378C612.492,836.378 616.088,836.799 617.078,835.809C617.52,835.367 618.721,835.683 619.163,835.241C619.577,834.827 620.825,834.905 621.248,834.482C621.564,834.166 622.638,834.609 622.954,834.293C623.827,833.42 626.414,833.676 627.314,832.776C627.567,832.524 628.388,832.84 628.641,832.587C629.728,831.5 632.009,831.682 633,830.691C633.372,830.319 634.396,830.622 634.706,830.312C635.781,829.238 637.992,829.301 639.066,828.227C639.668,827.625 641.11,827.889 641.72,827.279C643.223,825.777 646.522,825.889 647.975,824.436C648.154,824.257 648.954,824.405 649.112,824.247C649.747,823.612 651.228,823.647 651.766,823.109C651.893,822.983 652.398,823.236 652.524,823.109C654.471,821.163 658.691,820.734 660.865,818.56C661.166,818.259 662.159,818.008 662.571,817.802C664.772,816.701 666.732,815.404 669.205,814.579C670.215,814.243 671.782,813.898 672.427,813.252C673.055,812.625 674.845,812.73 675.46,812.115C676.301,811.274 677.834,811.257 678.683,810.409C681.221,807.87 684.986,805.623 687.592,803.017C688.731,801.878 690.396,801.349 691.383,800.363C692.555,799.191 694.831,797.786 696.501,796.951C698.462,795.97 699.571,794.184 701.239,793.349C703.798,792.07 706.36,790.125 707.684,788.8C708.16,788.324 709.197,788.046 709.769,787.473C714.19,783.053 719.261,779.498 723.417,775.342C724.744,774.015 726.829,773.446 728.156,772.119C728.472,771.804 729.167,771.867 729.483,771.551C730.651,770.383 732.319,769.852 733.274,768.897C734.637,767.534 736.628,765.988 738.392,765.106C741.366,763.619 744.19,761.393 745.784,759.799C746.606,758.977 747.048,757.777 747.87,756.955C747.94,756.884 748.629,756.009 749.007,756.387C749.122,756.502 748.141,757.578 747.87,757.713C746.387,758.455 745.771,760.564 743.889,761.505C742.889,762.005 741.467,763.358 740.477,764.348C739.192,765.633 737.594,766.283 736.117,767.76C733.402,770.475 729.973,773.77 726.071,775.721C724.574,776.469 724.275,778.42 722.469,779.322C721.866,779.624 721.578,780.404 721.143,780.839C720.205,781.777 718.368,783.234 717.162,784.44C715.259,786.343 713.381,787.274 711.665,788.99C711.223,789.432 710.401,789.495 709.959,789.937C706.643,793.254 700.898,797.122 695.932,799.605C693.732,800.705 691.791,802.339 689.677,803.396C688.133,804.167 686.405,804.582 685.507,805.481C685.285,805.702 684.59,805.449 684.369,805.67C684.013,806.027 682.876,806.808 682.284,806.808" style="fill:none;"/>
        <path d="M746.002,753.299C746.892,752.288 748.195,751.651 749.646,751.651C752.328,751.651 754.505,753.828 754.505,756.51C754.505,759.123 750.461,761.818 750.461,761.818C750.461,761.818 751.405,761.269 751.714,760.96C750.489,762.185 749.032,763.179 747.761,764.36C747.467,764.909 747.028,765.646 746.596,766.078C744.708,767.966 742.797,769.687 741.099,771.385C739.668,772.816 737.806,773.73 736.171,775.366C735.98,775.557 735.17,776.031 734.56,776.375C734.088,776.823 733.647,777.175 733.463,777.315L729.726,781.052C728.464,782.314 727.035,783.194 725.56,783.935C724.497,784.469 723.347,784.778 722.523,785.602C722.302,785.822 721.527,786.208 720.814,786.535C717.273,789.888 712.829,792.455 708.317,795.008C704.336,797.261 700.288,799.496 697.123,802.661C696.457,803.327 695.614,803.919 694.716,804.447L693.433,805.209C692.382,806.221 690.803,807.008 689.013,807.546C688.228,807.782 686.715,808.259 686.715,808.259C686.715,808.259 686.858,808.156 686.973,808.06C686.598,808.365 685.904,808.646 685.191,808.875C682.496,811.38 678.827,813.943 676.461,816.309C675.31,817.461 672.065,818.967 672.065,818.967C672.065,818.967 672.157,818.894 672.229,818.828C671.915,819.078 671.126,819.39 670.34,819.659C669.796,820.06 669.188,820.39 668.526,820.655C667.764,820.958 666.821,821.029 666.1,821.389C664.378,822.251 661.731,823.078 660.539,824.27C659.798,825.012 657.324,826.165 657.324,826.165C657.324,826.165 657.881,825.791 658.075,825.597C657.723,825.949 656.758,826.364 655.918,826.679C655.281,827.148 654.529,827.549 653.692,827.873C653.025,828.132 651.692,828.581 651.364,828.69C650.71,829.269 649.915,829.715 648.983,829.998C648.538,830.133 647.691,830.267 647.141,830.344C646.407,830.905 645.554,831.384 644.614,831.793C643.567,832.249 642.351,832.6 641.269,833.142C640.63,833.461 639.504,833.73 639.088,833.822C638.239,834.21 637.246,834.537 636.607,834.73C636.116,835.044 635.559,835.295 634.937,835.471C634.304,835.65 632.763,835.816 632.763,835.816C632.763,835.816 633.96,835.306 634.381,834.885C634.081,835.185 633.324,835.449 632.5,835.659C631.01,836.456 628.959,836.998 628.959,836.998C628.959,836.998 629.7,836.636 630.094,836.314C629.589,836.709 628.53,837.046 627.562,837.289C627.164,837.534 626.726,837.742 626.248,837.909C625.589,838.14 623.985,838.439 623.985,838.439C623.985,838.439 624.658,838.099 625.004,837.806C624.651,838.082 623.931,838.32 623.154,838.512C622.871,838.691 622.56,838.85 622.222,838.985C621.49,839.278 619.418,839.549 619.418,839.549C619.418,839.549 619.992,839.298 620.525,839.006L620.496,839.01C619.246,839.629 617.282,840.097 617.282,840.097C617.282,840.097 619.031,839.506 619.695,838.945C619.187,839.357 617.924,839.804 616.942,840.108C616.413,840.414 615.77,840.677 615.007,840.837C613.597,841.132 610.948,840.976 609.8,840.976C607.118,840.976 604.941,838.799 604.941,836.117C604.941,833.436 607.118,831.259 609.8,831.259C610.505,831.259 613.047,831.318 613.047,831.318C613.047,831.318 611.899,831.864 611.384,832.231C612.352,831.553 615.32,830.767 615.32,830.767C615.32,830.767 614.675,831.017 614.038,831.323C614.498,831.121 615.015,830.939 615.485,830.793C615.757,830.627 616.054,830.479 616.377,830.353C617.088,830.074 619.128,829.807 619.128,829.807C619.128,829.807 617.697,830.434 617.273,830.857C617.62,830.51 618.565,830.218 619.533,829.998C621.08,829.234 623.138,828.706 623.138,828.706C623.138,828.706 622.349,829.098 621.945,829.425C622.448,829.033 623.494,828.7 624.454,828.457C624.829,828.222 625.234,828.023 625.668,827.859C626.323,827.612 627.86,827.307 627.86,827.307C627.86,827.307 627.189,827.639 626.838,827.938C627.138,827.703 627.708,827.493 628.35,827.316C628.866,826.961 629.45,826.679 630.096,826.479C630.557,826.337 631.408,826.211 631.96,826.14C632.326,825.931 632.731,825.752 633.177,825.612C633.566,825.489 634.377,825.339 634.793,825.267C635.683,824.795 636.674,824.475 637.168,824.331C638.017,823.924 638.917,823.588 639.789,823.259C640.29,823.07 641.139,822.675 641.24,822.628C641.928,821.962 642.765,821.464 643.731,821.144C644.236,820.977 645.16,820.825 645.755,820.739C646.414,820.273 647.172,819.881 647.995,819.563C648.769,819.265 650.332,818.749 650.332,818.749C650.332,818.749 650.189,818.848 650.055,818.954C650.608,818.54 651.703,818.114 652.516,817.831C653.128,817.481 653.773,817.158 654.113,816.993C656.015,815.369 659.379,813.885 661.754,812.698C662.705,812.222 664.925,811.629 664.925,811.629C664.925,811.629 664.467,811.907 664.282,812.091C664.568,811.805 665.413,811.466 666.254,811.183C666.719,810.833 667.237,810.516 667.796,810.232C668.366,809.942 669.51,809.41 669.717,809.314C672.315,806.754 676.383,803.971 679.068,801.287C679.435,800.919 680.295,800.582 681.143,800.32C682.121,799.634 683.358,799.082 684.716,798.674C685.393,798.47 686.611,798.087 686.935,797.985C687.518,797.46 688.235,796.971 689.014,796.517C689.434,796.273 689.936,796.105 690.251,795.79C694.027,792.014 698.781,789.238 703.532,786.55C707.506,784.302 711.484,782.139 714.514,779.109C714.74,778.883 715.552,778.482 716.28,778.15C717.306,777.27 718.466,776.59 719.696,775.983C720.75,775.461 721.937,775.099 722.854,774.181C724.183,772.852 725.447,771.588 726.645,770.39C727,770.035 727.492,769.66 727.845,769.409C728.013,769.203 728.212,768.994 728.448,768.791C728.624,768.639 729.319,768.258 729.847,767.98C731.339,766.652 732.954,765.787 734.228,764.514C735.817,762.924 737.593,761.314 739.363,759.564C739.656,759.022 740.104,758.258 740.483,757.879C740.992,757.37 741.542,756.9 742.101,756.441L743.224,755.526C743.784,755.067 744.333,754.598 744.842,754.088C745.075,753.855 745.543,753.56 746.002,753.299ZM620.613,838.953L620.557,838.981L620.576,838.977L620.777,838.861L620.613,838.953Z" style="fill:rgb(67,178,230);"/>
    </g>
</svg>
