<?xml version="1.0" encoding="UTF-8" standalone="no"?>
<!DOCTYPE svg PUBLIC "-//W3C//DTD SVG 1.1//EN" "http://www.w3.org/Graphics/SVG/1.1/DTD/svg11.dtd">
<svg width="100%" height="100%" viewBox="0 0 1042 1042" version="1.1" xmlns="http://www.w3.org/2000/svg" xmlns:xlink="http://www.w3.org/1999/xlink" xml:space="preserve" xmlns:serif="http://www.serif.com/" style="fill-rule:evenodd;clip-rule:evenodd;stroke-linejoin:round;stroke-miterlimit:2;">
    <g id="Layer-1" serif:id="Layer 1" transform="matrix(4.16667,0,0,4.16667,-3479.17,-1729.17)">
        <g transform="matrix(0.154905,0.268303,-0.207262,0.119663,1037.92,270.151)">
            <rect x="518.043" y="849.483" width="442.5" height="170.979" style="fill:rgb(67,178,230);"/>
        </g>
        <g transform="matrix(0.304778,0,0,0.304778,764.637,356.987)">
            <path d="M639.83,203.905C857.775,203.905 1034.72,380.848 1034.72,598.793C1034.72,816.737 857.775,993.68 639.83,993.68C421.886,993.68 244.943,816.737 244.943,598.793C244.943,380.848 421.886,203.905 639.83,203.905ZM639.83,338.167C783.674,338.167 900.456,454.949 900.456,598.793C900.456,742.636 783.674,859.418 639.83,859.418C495.987,859.418 379.205,742.636 379.205,598.793C379.205,454.949 495.987,338.167 639.83,338.167Z" style="fill:white;"/>
        </g>
        <g transform="matrix(0.24,5.32907e-17,3.9968e-17,0.24,835,415)">
            <clipPath id="_clip1">
                <path d="M519.345,17.219C796.114,17.219 1020.82,241.92 1020.82,518.69C1020.82,795.459 796.114,1020.16 519.345,1020.16C242.576,1020.16 17.874,795.459 17.874,518.69C17.874,241.92 242.576,17.219 519.345,17.219ZM519.345,187.719C702.013,187.719 850.316,336.022 850.316,518.69C850.316,701.357 702.013,849.66 519.345,849.66C336.677,849.66 188.374,701.357 188.374,518.69C188.374,336.022 336.677,187.719 519.345,187.719Z"/>
            </clipPath>
            <g clip-path="url(#_clip1)">
                <path d="M1020.82,518.69L850.316,518.69L832.907,519.648L592.579,808.039L706.973,1014.58L874.327,951.032L1022.62,733.895L1036.3,523.114L1020.82,518.69Z" style="fill:rgb(67,178,230);"/>
            </g>
        </g>
        <g transform="matrix(0.192417,0.333277,-0.207262,0.119663,1010.96,223.456)">
            <clipPath id="_clip2">
                <path d="M373.671,594.514C459.974,354.15 651.4,271.672 800.881,410.447C950.361,549.221 1001.65,857.033 915.351,1097.4C829.049,1337.76 637.622,1420.24 488.142,1281.46C338.661,1142.69 287.368,834.878 373.671,594.514ZM465.757,680.004C522.717,521.364 649.058,466.929 747.715,558.52C846.372,650.111 880.225,853.267 823.266,1011.91C766.306,1170.55 639.965,1224.98 541.307,1133.39C442.65,1041.8 408.797,838.645 465.757,680.004Z"/>
            </clipPath>
            <g clip-path="url(#_clip2)">
                <rect x="518.043" y="849.483" width="442.5" height="170.979" style="fill:rgb(67,178,230);"/>
            </g>
        </g>
        <g transform="matrix(0.24,0,0,0.24,835,415)">
            <path d="M673.609,806.426C674.088,805.946 674.654,805.427 675.042,805.22C675.871,804.778 676.719,804.59 677.537,804.59C680.219,804.59 682.396,806.767 682.396,809.448C682.396,811.126 681.544,812.606 680.249,813.48C680.086,813.68 679.913,813.887 679.827,813.973C679.424,814.376 678.424,814.744 677.505,815.015C676.499,815.574 675.369,816.031 675.369,816.031C675.369,816.031 675.589,815.901 675.822,815.741C675.159,816.163 674.15,816.549 673.382,816.808C671.961,818.043 670.286,819.045 668.531,819.95C666.555,820.97 664.4,821.758 662.945,823.213C662.251,823.907 661.383,824.422 660.354,824.715C659.711,824.898 658.221,825.022 658.221,825.022C658.221,825.022 659.611,824.491 660.188,824.006C659.258,824.772 656.116,825.525 655.803,825.599L655.604,825.67L655.2,825.802C654.6,826.207 653.903,826.547 653.122,826.803C652.278,827.079 650.585,827.417 649.988,827.533C649.599,827.811 649.151,828.057 648.64,828.251C647.873,828.541 645.616,828.819 645.616,828.819C645.616,828.819 646.919,828.222 647.307,827.834C647.013,828.128 646.287,828.384 645.483,828.589C645.061,828.869 644.584,829.106 644.054,829.293C643.428,829.512 641.901,829.796 641.901,829.796C641.901,829.796 642.188,829.694 642.312,829.632C642.005,829.786 641.282,829.891 640.59,829.957C639.706,830.291 638.936,830.498 638.936,830.498C638.936,830.498 639.105,830.457 639.188,830.429C638.077,830.799 635.745,831.505 635.745,831.505C635.745,831.505 635.878,831.408 635.992,831.315C635.45,831.747 634.291,832.144 633.314,832.421C632.34,833.116 631.176,833.653 629.918,834.075C629.139,834.337 627.643,834.879 627.611,834.891C627.096,835.282 626.049,835.666 625.155,835.944C624.682,836.268 624.155,836.543 623.583,836.77C622.824,837.07 621.113,837.518 621.113,837.518C621.113,837.518 621.24,837.439 621.384,837.337C620.688,837.793 619.493,838.175 618.603,838.417C617.549,838.958 616.42,839.383 616.42,839.383C616.42,839.383 617.03,839.033 617.353,838.762C616.921,839.112 616.055,839.424 615.213,839.665C614.67,840.029 614.066,840.317 613.403,840.533C612.815,840.725 612.052,840.675 611.392,841.005C609.519,841.942 607.226,842.733 605.35,843.671C604.616,844.038 603.103,844.338 602.348,844.472C602.093,844.623 601.814,844.76 601.51,844.876C600.9,845.112 599.13,845.353 599.13,845.353C599.13,845.353 599.971,844.994 600.625,844.626C599.848,845.03 598.708,845.364 597.855,845.58C597.31,845.902 596.682,846.152 595.971,846.303C595.509,846.401 594.601,846.457 594.038,846.483C593.755,846.608 593.45,846.708 593.123,846.782C592.904,846.831 592.515,846.84 592.104,846.831C591.972,846.879 591.837,846.922 591.699,846.962C591.234,847.097 590.342,847.216 589.8,847.279C589.464,847.443 589.096,847.573 588.695,847.663C588.532,847.7 588.272,847.714 587.979,847.715C587.406,847.952 586.787,848.114 586.125,848.205C585.494,848.291 584.221,848.312 583.769,848.316C582.184,849.018 580.275,849.396 578.272,849.618C576.489,849.817 574.566,849.733 573.185,850.424C572.048,850.992 569.208,851.212 569.208,851.212L569.237,851.204C567.978,851.496 566.09,851.502 565.443,851.493C564.366,851.709 563.062,851.767 562.41,851.781C561.217,852.266 560.009,852.461 558.762,852.514C558.001,852.546 557.202,852.367 556.378,852.642C555.483,852.94 553.75,852.928 552.957,852.903C552.323,853.11 551.636,853.218 550.906,853.22C550.375,853.221 549.406,853.082 548.829,852.99C547.913,853.281 546.917,853.413 545.878,853.409C545.203,853.407 543.992,853.34 543.553,853.313C540.894,854.433 537.134,854.491 534.05,854.491C532.779,854.491 531.082,854.491 529.739,854.168C529.172,854.264 527.702,854.499 526.959,854.498C525.948,854.496 525.015,854.304 524.181,853.94C523.932,853.91 522.811,853.78 522.499,853.78C522.548,853.78 522.69,853.775 522.69,853.775C522.69,853.775 519.937,853.828 519.265,853.63C518.959,853.54 518.681,853.429 518.432,853.303C517.358,853.043 515.939,852.626 515.293,852.122C515.501,852.292 515.814,852.516 515.814,852.516C515.814,852.516 514.192,851.954 513.63,851.954C510.949,851.954 508.771,849.777 508.771,847.095C508.771,844.413 510.949,842.236 513.63,842.236C515.047,842.236 517.554,842.746 519.27,843.429C519.868,843.666 520.396,843.94 520.841,844.219C521.293,844.331 521.796,844.469 522.27,844.629C521.643,844.363 521.086,844.15 521.086,844.15C521.086,844.15 522.291,844.062 522.499,844.062C523.463,844.062 525.661,844.293 527.205,844.734C527.799,844.634 529.219,844.409 529.945,844.411C530.816,844.412 531.629,844.555 532.37,844.828C532.755,844.81 533.632,844.773 534.05,844.773C535.888,844.773 538.197,845.147 539.696,844.398C540.798,843.846 542.095,843.583 543.509,843.583C544.213,843.583 545.57,843.657 545.969,843.681C546.725,843.368 547.564,843.203 548.47,843.201C549.098,843.2 550.345,843.395 550.822,843.474C551.924,843.286 553.197,843.268 553.795,843.273C554.98,842.942 556.131,842.846 557.262,842.825C557.757,842.816 558.25,843.028 558.71,842.798C559.98,842.163 562.849,842.133 563.316,842.133C564.498,841.914 566.053,841.899 566.715,841.906C567.675,841.673 568.819,841.545 569.351,841.495C570.942,840.803 572.832,840.43 574.804,840.208C576.59,840.007 578.502,840.099 579.857,839.422C580.817,838.942 581.905,838.686 583.053,838.614C583.411,838.592 583.979,838.583 584.372,838.58C584.759,838.368 585.191,838.203 585.672,838.095C585.865,838.052 586.195,838.04 586.553,838.044C586.695,837.994 586.842,837.949 586.993,837.908C587.414,837.795 588.244,837.688 588.754,837.63C589.114,837.444 589.513,837.298 589.951,837.2C590.182,837.148 590.602,837.14 591.038,837.151C591.257,837.079 591.484,837.018 591.721,836.967C592.423,836.818 594.148,836.765 594.148,836.765C594.148,836.765 593.88,836.867 593.533,837.021C594.986,836.444 596.824,836.124 596.824,836.124C596.824,836.124 595.128,836.699 594.492,837.238C595.033,836.801 596.559,836.271 597.592,835.945C598.055,835.65 598.572,835.412 599.14,835.234C599.701,835.059 600.925,834.877 601.338,834.819C603.146,833.948 605.283,833.195 607.046,832.314C608.162,831.755 610.388,831.295 610.388,831.295C610.388,831.295 609.782,831.607 609.444,831.886C609.957,831.474 611.067,831.116 612.029,830.866C613.067,830.333 614.202,829.896 614.202,829.896C614.202,829.896 613.643,830.219 613.34,830.475C613.815,830.087 614.866,829.703 615.777,829.423C616.271,829.073 616.816,828.778 617.406,828.536C618.22,828.202 619.985,827.743 619.985,827.743C619.985,827.743 619.486,828.051 619.289,828.248C619.67,827.866 620.804,827.44 621.779,827.127C622.795,826.369 624.016,825.795 625.33,825.35C626.129,825.079 627.649,824.538 627.649,824.538C627.649,824.538 627.61,824.568 627.566,824.605C628.066,824.208 629.237,823.808 630.218,823.523C630.713,823.171 631.278,822.852 631.904,822.576C633.144,822.03 634.772,821.658 636.115,821.21C636.671,821.025 637.789,820.842 637.789,820.842C637.789,820.842 636.484,821.36 635.993,821.851C636.575,821.268 638.983,820.776 640.071,820.579L640.139,820.535L640.147,820.531L640.275,820.517L640.392,820.506L640.645,820.415C640.773,820.376 640.901,820.337 641.029,820.298L641.39,820.201C641.893,819.876 642.483,819.606 643.158,819.42C643.613,819.296 644.492,819.176 645.063,819.107C645.601,818.78 646.217,818.502 646.905,818.289C647.867,817.991 650.108,817.564 650.108,817.564C650.108,817.564 649.874,817.704 649.651,817.861C650.757,817.128 653.201,816.471 653.201,816.471C653.201,816.471 651.804,816.985 651.197,817.497C652.232,816.639 655.655,815.879 655.655,815.879C655.655,815.879 655.124,816.089 654.565,816.358C655.309,816.033 656.213,815.76 656.91,815.573C658.29,814.396 659.92,813.428 661.638,812.545C663.609,811.532 665.778,810.725 667.269,809.234C667.924,808.578 669.729,807.948 670.663,807.655C671.667,807.097 672.794,806.642 672.794,806.642C672.794,806.642 672.274,806.948 671.983,807.195C672.328,806.911 672.951,806.647 673.609,806.426ZM640.147,820.531C639.5,820.599 638.361,820.743 637.967,820.94C638.791,820.528 640.944,820.088 640.944,820.088C640.944,820.088 640.537,820.293 640.147,820.531ZM640.392,820.506L640.298,820.539L640.071,820.579L639.91,820.681C639.842,820.73 639.773,820.778 639.705,820.826L639.645,820.878C639.802,820.758 640.028,820.645 640.298,820.539L640.609,820.485L640.392,820.506ZM669.498,808.435C669.463,808.465 669.43,808.494 669.402,808.523L669.498,808.435ZM672.97,807.089L672.956,807.101C672.884,807.172 672.693,807.392 672.693,807.392C672.693,807.392 672.799,807.273 672.97,807.089Z" style="fill:rgb(67,178,230);"/>
        </g>
    </g>
</svg>
