<?xml version="1.0" encoding="UTF-8" standalone="no"?>
<!DOCTYPE svg PUBLIC "-//W3C//DTD SVG 1.1//EN" "http://www.w3.org/Graphics/SVG/1.1/DTD/svg11.dtd">
<svg width="100%" height="100%" viewBox="0 0 64 64" version="1.1" xmlns="http://www.w3.org/2000/svg" xmlns:xlink="http://www.w3.org/1999/xlink" xml:space="preserve" xmlns:serif="http://www.serif.com/" style="fill-rule:evenodd;clip-rule:evenodd;stroke-linejoin:round;stroke-miterlimit:2;">
    <g id="Layer1" transform="matrix(0.0638123,0,0,0.0638123,-1.14059,-1.09877)">
        <g transform="matrix(0.69515,1.20404,-0.863594,0.498596,885.301,-712.151)">
            <rect x="518.043" y="849.483" width="442.5" height="170.979" style="fill:rgb(67,178,230);"/>
        </g>
        <g transform="matrix(0,1.26991,-1.26991,0,1279.76,-293.836)">
            <path d="M639.83,203.905C857.775,203.905 1034.72,380.848 1034.72,598.793C1034.72,816.737 857.775,993.68 639.83,993.68C421.886,993.68 244.943,816.737 244.943,598.793C244.943,380.848 421.886,203.905 639.83,203.905ZM639.83,338.167C783.674,338.167 900.456,454.949 900.456,598.793C900.456,742.636 783.674,859.418 639.83,859.418C495.987,859.418 379.205,742.636 379.205,598.793C379.205,454.949 495.987,338.167 639.83,338.167Z" style="fill:rgb(23,24,26);"/>
        </g>
        <g transform="matrix(1.11022e-16,1,-1,1.11022e-16,1038.03,-0.655388)">
            <clipPath id="_clip1">
                <path d="M519.345,17.219C796.114,17.219 1020.82,241.92 1020.82,518.69C1020.82,795.459 796.114,1020.16 519.345,1020.16C242.576,1020.16 17.874,795.459 17.874,518.69C17.874,241.92 242.576,17.219 519.345,17.219ZM519.345,187.719C702.013,187.719 850.316,336.022 850.316,518.69C850.316,701.357 702.013,849.66 519.345,849.66C336.677,849.66 188.374,701.357 188.374,518.69C188.374,336.022 336.677,187.719 519.345,187.719Z"/>
            </clipPath>
            <g clip-path="url(#_clip1)">
                <path d="M519.345,17.219L519.345,187.719L532.803,221.415L738.819,342.015L817.869,419.124L1000.49,330.115L932.995,158.624L710.716,17.219L534.617,7.997L519.345,17.219Z" style="fill:rgb(67,178,230);"/>
            </g>
        </g>
        <g transform="matrix(0.645436,1.11793,-0.863594,0.498596,957.547,-587.016)">
            <clipPath id="_clip2">
                <path d="M572.069,432.09C786.474,432.09 960.543,657.424 960.543,934.972C960.543,1212.52 786.474,1437.86 572.069,1437.86C357.664,1437.86 183.595,1212.52 183.595,934.972C183.595,657.424 357.664,432.09 572.069,432.09ZM572.069,603.07C713.576,603.07 828.462,751.79 828.462,934.972C828.462,1118.15 713.576,1266.88 572.069,1266.88C430.562,1266.88 315.676,1118.15 315.676,934.972C315.676,751.79 430.562,603.07 572.069,603.07Z"/>
            </clipPath>
            <g clip-path="url(#_clip2)">
                <rect x="518.043" y="849.483" width="442.5" height="170.979" style="fill:rgb(67,178,230);"/>
            </g>
        </g>
        <path d="M610.633,836.378C612.492,836.378 616.088,836.799 617.078,835.809C617.52,835.367 618.721,835.683 619.163,835.241C619.577,834.827 620.825,834.905 621.248,834.482C621.564,834.166 622.638,834.609 622.954,834.293C623.827,833.42 626.414,833.676 627.314,832.776C627.567,832.524 628.388,832.84 628.641,832.587C629.728,831.5 632.009,831.682 633,830.691C633.372,830.319 634.396,830.622 634.706,830.312C635.781,829.238 637.992,829.301 639.066,828.227C639.668,827.625 641.11,827.889 641.72,827.279C643.223,825.777 646.522,825.889 647.975,824.436C648.154,824.257 648.954,824.405 649.112,824.247C649.747,823.612 651.228,823.647 651.766,823.109C651.893,822.983 652.398,823.236 652.524,823.109C654.471,821.163 658.691,820.734 660.865,818.56C661.166,818.259 662.159,818.008 662.571,817.802C664.772,816.701 666.732,815.404 669.205,814.579C670.215,814.243 671.782,813.898 672.427,813.252C673.055,812.625 674.845,812.73 675.46,812.115C676.301,811.274 677.834,811.257 678.683,810.409C681.221,807.87 684.986,805.623 687.592,803.017C688.731,801.878 690.396,801.349 691.383,800.363C692.555,799.191 694.831,797.786 696.501,796.951C698.462,795.97 699.571,794.184 701.239,793.349C703.798,792.07 706.36,790.125 707.684,788.8C708.16,788.324 709.197,788.046 709.769,787.473C714.19,783.053 719.261,779.498 723.417,775.342C724.744,774.015 726.829,773.446 728.156,772.119C728.472,771.804 729.167,771.867 729.483,771.551C730.651,770.383 732.319,769.852 733.274,768.897C734.637,767.534 736.628,765.988 738.392,765.106C741.366,763.619 744.19,761.393 745.784,759.799C746.606,758.977 747.048,757.777 747.87,756.955C747.94,756.884 748.629,756.009 749.007,756.387C749.122,756.502 748.141,757.578 747.87,757.713C746.387,758.455 745.771,760.564 743.889,761.505C742.889,762.005 741.467,763.358 740.477,764.348C739.192,765.633 737.594,766.283 736.117,767.76C733.402,770.475 729.973,773.77 726.071,775.721C724.574,776.469 724.275,778.42 722.469,779.322C721.866,779.624 721.578,780.404 721.143,780.839C720.205,781.777 718.368,783.234 717.162,784.44C715.259,786.343 713.381,787.274 711.665,788.99C711.223,789.432 710.401,789.495 709.959,789.937C706.643,793.254 700.898,797.122 695.932,799.605C693.732,800.705 691.791,802.339 689.677,803.396C688.133,804.167 686.405,804.582 685.507,805.481C685.285,805.702 684.59,805.449 684.369,805.67C684.013,806.027 682.876,806.808 682.284,806.808" style="fill:none;"/>
        <g transform="matrix(1.02455,0,0,1.02233,-16.931,-18.225)">
            <path d="M609.8,836.117C610.96,836.117 614.019,836.434 614.643,835.809C614.93,835.523 616.05,835.729 616.349,835.43C616.665,835.114 617.55,835.367 617.866,835.051C618.389,834.528 620.172,834.83 620.709,834.293C620.867,834.135 621.499,834.451 621.657,834.293C622.547,833.402 624.496,833.729 625.258,832.966C625.543,832.682 626.49,833.061 626.775,832.776C627.568,831.984 629.308,832.329 630.187,831.45C630.313,831.323 630.819,831.576 630.945,831.45C631.683,830.711 633.499,831.17 634.167,830.502C634.717,829.952 636.368,830.197 637.011,829.554C637.611,828.954 638.363,829.162 639.096,828.796C641.029,827.829 643.342,827.393 644.593,826.142C645.45,825.285 647.419,825.78 648.194,825.005C649.437,823.762 652.168,823.685 653.312,822.541C653.581,822.272 654.399,822.401 654.639,822.161C655.171,821.629 656.529,821.409 657.103,820.835C658.589,819.349 661.78,818.117 663.927,817.044C665.121,816.447 666.812,816.433 667.718,815.527C667.897,815.348 668.697,815.496 668.856,815.338C669.88,814.314 671.919,813.98 673.026,812.873C675.618,810.281 679.775,807.451 682.503,804.723C682.725,804.501 683.42,804.754 683.641,804.533C685.057,803.117 688.674,803.101 690.085,801.69C690.985,800.79 692.706,800.206 693.687,799.226C700.628,792.285 711.292,789.202 717.95,782.545C718.11,782.385 718.927,782.326 719.087,782.166C721.07,780.182 724.099,779.808 726.29,777.617C727.619,776.288 728.883,775.023 730.081,773.825C730.736,773.171 731.281,773.132 731.598,772.499C731.665,772.363 732.571,772.094 732.735,771.93C734.37,770.295 736.232,769.381 737.663,767.949C739.361,766.251 741.272,764.53 743.16,762.642C743.578,762.224 743.581,761.653 743.919,761.315C745.277,759.957 746.92,758.882 748.278,757.524C748.624,757.178 749.646,757.181 749.646,756.51" style="fill:none;stroke:rgb(67,178,230);stroke-width:5.56px;stroke-linecap:round;stroke-miterlimit:1.5;"/>
        </g>
    </g>
</svg>
